<svg xmlns="http://www.w3.org/2000/svg" width="900" height="360" viewBox="0 0 900 360"><rect x="0" y="0" width="900" height="360" fill="#ffffff"/><line x1="40" y1="60" x2="860" y2="60" stroke="#1b1b1b" stroke-width="1"/><line x1="40" y1="70" x2="860" y2="70" stroke="#1b1b1b" stroke-width="1"/><line x1="40" y1="80" x2="860" y2="80" stroke="#1b1b1b" stroke-width="1"/><line x1="40" y1="90" x2="860" y2="90" stroke="#1b1b1b" stroke-width="1"/><line x1="40" y1="100" x2="860" y2="100" stroke="#1b1b1b" stroke-width="1"/><text x="50" y="88" fill="#111111" font-size="34">𝄞</text><line x1="92" y1="60" x2="92" y2="100" stroke="#1b1b1b" stroke-width="1"/><text x="96" y="72" fill="#111111" font-size="16">4</text><text x="96" y="88" fill="#111111" font-size="16">4</text><text x="122" y="78" fill="#555555" font-size="14">#2</text><line x1="97" y1="60" x2="97" y2="100" stroke="#111111" stroke-width="2"/><circle cx="100" cy="74" r="1.7" fill="#111111"/><circle cx="100" cy="86" r="1.7" fill="#111111"/><path d="M 102 48 H 464 V 55" stroke="#111111" fill="none"/><text x="106" y="46" fill="#111111" font-size="12">1.</text><ellipse cx="209.66666666666666" cy="110" rx="6" ry="4" fill="#111111" stroke="#111111" stroke-width="1"/><line x1="214.66666666666666" y1="110" x2="214.66666666666666" y2="80" stroke="#111111" stroke-width="1.3"/><rect x="213.66666666666666" y="80" width="12" height="3" fill="#111111"/><line x1="200.66666666666666" y1="110" x2="218.66666666666666" y2="110" stroke="#1b1b1b" stroke-width="1"/><circle cx="218.66666666666666" cy="110" r="1.5" fill="#111111"/><circle cx="222.66666666666666" cy="110" r="1.5" fill="#111111"/><circle cx="209.66666666666666" cy="101" r="1.7" fill="#111111"/><text x="201.66666666666666" y="128" fill="#1f4d2d" font-size="12">mf</text><rect x="198.66666666666666" y="99" width="22" height="22" stroke="#2d7ff9" fill="none" stroke-width="1.2"/><ellipse cx="302.37777777777774" cy="55" rx="6" ry="4" fill="#111111" stroke="#111111" stroke-width="1"/><line x1="296.37777777777774" y1="55" x2="296.37777777777774" y2="85" stroke="#111111" stroke-width="1.3"/><rect x="286.37777777777774" y="82" width="12" height="3" fill="#111111"/><rect x="286.37777777777774" y="77" width="12" height="3" fill="#111111"/><path d="M 298.37777777777774 47 L 307.37777777777774 46 L 298.37777777777774 45 Z" fill="#111111"/><line x1="298.37777777777774" y1="46" x2="306.37777777777774" y2="46" stroke="#111111"/><text x="394.7111111111111" y="83" fill="#111111" font-size="16">𝄽</text><line x1="214.66666666666666" y1="38" x2="307.37777777777774" y2="38" stroke="#111111" stroke-width="2"/><line x1="466" y1="60" x2="466" y2="100" stroke="#1b1b1b" stroke-width="1"/><line x1="474" y1="60" x2="474" y2="100" stroke="#1b1b1b" stroke-width="1"/><line x1="846" y1="60" x2="846" y2="100" stroke="#111111" stroke-width="2"/><circle cx="843" cy="74" r="1.7" fill="#111111"/><circle cx="843" cy="86" r="1.7" fill="#111111"/><path d="M 484 48 H 846 V 55" stroke="#111111" fill="none"/><text x="488" y="46" fill="#111111" font-size="12">2.</text><ellipse cx="665" cy="40" rx="6" ry="4" fill="#111111" stroke="#111111" stroke-width="1"/><line x1="659" y1="40" x2="659" y2="70" stroke="#111111" stroke-width="1.3"/><line x1="656" y1="50" x2="674" y2="50" stroke="#1b1b1b" stroke-width="1"/><line x1="656" y1="40" x2="674" y2="40" stroke="#1b1b1b" stroke-width="1"/><line x1="848" y1="60" x2="848" y2="100" stroke="#1b1b1b" stroke-width="1"/><path d="M 209.66666666666666 102 Q 437.3333333333333 12 665 32" stroke="#555555" fill="none" stroke-width="1.2"/><path d="M 209.66666666666666 114 Q 256.0222222222222 123 302.37777777777774 59" stroke="#555555" fill="none" stroke-width="1"/><path d="M 209.66666666666666 135 L 665 129 M 209.66666666666666 137 L 665 143" stroke="#555555" fill="none" stroke-width="1"/><line x1="206" y1="54" x2="206" y2="106" stroke="#d92020" stroke-width="1.6"/></svg>